<svg xmlns="http://www.w3.org/2000/svg" viewBox="0 0 320 200" fill="none" stroke="#2a1717" stroke-width="3.5" stroke-linejoin="round" stroke-linecap="round">
<circle cx="160" cy="100" r="88" fill="#fff3dc" fill-opacity=".10" stroke="none"/>
<rect x="60" y="28" width="150" height="110" rx="10" fill="#fff3dc"/>
<path d="M60 48h150"/><g fill="#c2410c" stroke="none"><circle cx="74" cy="38" r="4"/></g><g fill="#ffd36b" stroke="none"><circle cx="86" cy="38" r="4"/></g><g fill="#7cc576" stroke="none"><circle cx="98" cy="38" r="4"/></g>
<rect x="74" y="60" width="54" height="40" rx="6" fill="#6aa8e8"/><path d="M80 94l14-16 10 10 8-6 12 12" stroke-width="2.5"/>
<rect x="138" y="62" width="60" height="8" rx="4" fill="#3b2424" stroke="none"/><rect x="138" y="78" width="44" height="8" rx="4" fill="#d9c7a8" stroke="none"/>
<rect x="138" y="108" width="58" height="20" rx="10" fill="#f08a3c"/>
<rect x="150" y="96" width="120" height="84" rx="10" fill="#8f7ad8"/>
<path d="M150 114h120"/>
<g fill="#fff3dc"><rect x="164" y="126" width="24" height="24" rx="6"/><rect x="198" y="126" width="24" height="24" rx="6"/><rect x="232" y="126" width="24" height="24" rx="6"/></g>
<path d="M170 138l6 6 8-10M204 138h12M244 132v12M238 138h12" stroke-width="2.5"/>
<rect x="164" y="158" width="92" height="10" rx="5" fill="#ffd36b"/>
<path d="M236 64l30 72 10-28 26-6Z" fill="#fff3dc"/>
<g stroke="#fff3dc" stroke-width="3"><path d="M40 150v14M33 157h14"/><path d="M286 40v10M281 45h10"/></g>
</svg>
